HIERARCHY
ROOT Hips
{
	OFFSET 0.000000 0.000000 0.000000
	CHANNELS 6 Xposition Yposition Zposition Xrotation Yrotation Zrotation
	JOINT Chest
	{
		OFFSET 0.000000 0.009282 11.569106
		CHANNELS 6 Xposition Yposition Zposition Xrotation Yrotation Zrotation
		JOINT Chest2
		{
			OFFSET 0.000000 -0.016863 9.269641
			CHANNELS 6 Xposition Yposition Zposition Xrotation Yrotation Zrotation
			JOINT Chest3
			{
				OFFSET 0.000000 0.000000 8.374491
				CHANNELS 6 Xposition Yposition Zposition Xrotation Yrotation Zrotation
				JOINT Chest4
				{
					OFFSET 0.000000 0.000000 8.374493
					CHANNELS 6 Xposition Yposition Zposition Xrotation Yrotation Zrotation
					JOINT Neck
					{
						OFFSET 0.000000 -0.000001 12.152554
						CHANNELS 6 Xposition Yposition Zposition Xrotation Yrotation Zrotation
						JOINT Head
						{
							OFFSET 0.000000 -0.040100 7.802319
							CHANNELS 6 Xposition Yposition Zposition Xrotation Yrotation Zrotation
							End Site
							{
								OFFSET 0.000000 -0.020946 14.853096
							}
						}
					}
					JOINT RightCollar
					{
						OFFSET -2.894404 0.000000 6.791374
						CHANNELS 6 Xposition Yposition Zposition Xrotation Yrotation Zrotation
						JOINT RightShoulder
						{
							OFFSET -13.574684 0.000000 0.000000
							CHANNELS 6 Xposition Yposition Zposition Xrotation Yrotation Zrotation
							JOINT RightElbow
							{
								OFFSET -23.923903 0.000000 0.000000
								CHANNELS 6 Xposition Yposition Zposition Xrotation Yrotation Zrotation
								JOINT RightWrist
								{
									OFFSET -19.846718 -0.012765 0.000000
									CHANNELS 6 Xposition Yposition Zposition Xrotation Yrotation Zrotation
									End Site
									{
										OFFSET -14.973145 0.000000 0.000000
									}
								}
							}
						}
					}
					JOINT LeftCollar
					{
						OFFSET 2.894404 0.000000 6.791374
						CHANNELS 6 Xposition Yposition Zposition Xrotation Yrotation Zrotation
						JOINT LeftShoulder
						{
							OFFSET 13.574684 0.000000 0.000000
							CHANNELS 6 Xposition Yposition Zposition Xrotation Yrotation Zrotation
							JOINT LeftElbow
							{
								OFFSET 23.923903 0.000000 0.000000
								CHANNELS 6 Xposition Yposition Zposition Xrotation Yrotation Zrotation
								JOINT LeftWrist
								{
									OFFSET 19.846718 -0.012765 0.000000
									CHANNELS 6 Xposition Yposition Zposition Xrotation Yrotation Zrotation
									End Site
									{
										OFFSET 14.973145 0.000000 0.000000
									}
								}
							}
						}
					}
				}
			}
		}
	}
	JOINT RightHip
	{
		OFFSET -9.469263 -0.004642 0.045487
		CHANNELS 6 Xposition Yposition Zposition Xrotation Yrotation Zrotation
		JOINT RightKnee
		{
			OFFSET 0.000000 -0.002666 -40.478676
			CHANNELS 6 Xposition Yposition Zposition Xrotation Yrotation Zrotation
			JOINT RightAnkle
			{
				OFFSET 0.000000 -0.049110 -35.224068
				CHANNELS 6 Xposition Yposition Zposition Xrotation Yrotation Zrotation
				JOINT RightToe
				{
					OFFSET 0.000000 -12.539530 -6.151390
					CHANNELS 6 Xposition Yposition Zposition Xrotation Yrotation Zrotation
					End Site
					{
						OFFSET 0.000000 -5.044995 -1.291870
					}
				}
			}
		}
	}
	JOINT LeftHip
	{
		OFFSET 9.469263 -0.004642 0.045487
		CHANNELS 6 Xposition Yposition Zposition Xrotation Yrotation Zrotation
		JOINT LeftKnee
		{
			OFFSET 0.000000 -0.002666 -40.478676
			CHANNELS 6 Xposition Yposition Zposition Xrotation Yrotation Zrotation
			JOINT LeftAnkle
			{
				OFFSET 0.000000 -0.049110 -35.224068
				CHANNELS 6 Xposition Yposition Zposition Xrotation Yrotation Zrotation
				JOINT LeftToe
				{
					OFFSET 0.000000 -12.539530 -6.151390
					CHANNELS 6 Xposition Yposition Zposition Xrotation Yrotation Zrotation
					End Site
					{
						OFFSET 0.000000 -5.044995 -1.291870
					}
				}
			}
		}
	}
}
MOTION
Frames: 4
Frame Time: 0.016667
8.382377 33.546909 9.307726 -11.584460 28.954565 -112.419450 -0.000002 0.009283 11.569107 13.351686 9.331311 1.665283 0.000003 -0.016861 9.269640 5.960234 4.084075 1.001609 -0.000003 -0.000001 8.374492 5.960235 4.084077 1.001611 -0.000000 -0.000001 8.374491 4.474995 3.053647 0.790866 -0.000001 -0.000002 12.152566 15.792396 0.459339 -0.486307 -0.000003 -0.040101 7.802316 -6.854286 1.013482 -0.717869 -2.894406 0.000002 6.791383 -0.576386 -5.977809 -3.492122 -13.574692 -0.000001 0.000003 38.113425 -37.410650 36.548076 -23.923903 0.000008 -0.000009 59.850263 3.653947 51.986629 -19.846714 -0.012761 -0.000003 -46.620440 32.894860 86.904923 2.894400 0.000002 6.791378 -10.010759 8.167191 0.239129 13.574683 0.000001 0.000000 15.457114 28.178290 2.046881 23.923899 -0.000000 -0.000005 64.316148 3.641498 -76.015163 19.846716 -0.012770 0.000001 -31.181528 -33.696513 -92.224001 -9.469267 -0.004641 0.045488 -69.830761 3.931224 -37.010493 -0.000774 -0.007225 -40.476944 141.090384 -12.381851 17.238086 -0.000701 -0.049206 -35.224056 14.832558 -42.638344 20.941842 0.000002 -12.539533 -6.151377 0.006363 -0.038485 -0.053063 9.469261 -0.004641 0.045488 -48.584833 -9.206759 -26.818099 -0.000405 -0.005752 -40.476063 101.431062 -15.841850 9.016000 -0.000354 -0.049947 -35.222157 52.112868 -38.121434 9.704704 -0.000002 -12.539534 -6.151382 0.001229 -0.007541 0.041024 
8.394352 33.563496 9.291900 -11.587797 28.966668 -112.416028 0.000002 0.009284 11.569109 13.356412 9.320251 1.664114 0.000002 -0.016866 9.269640 5.960967 4.087866 1.000970 0.000004 0.000002 8.374496 5.960970 4.087865 1.000973 -0.000001 0.000000 8.374483 4.475545 3.056494 0.790435 -0.000003 -0.000002 12.152551 15.731626 0.467330 -0.518993 0.000003 -0.040097 7.802311 -6.966761 1.040307 -0.773995 -2.894404 0.000000 6.791366 -0.578301 -5.982157 -3.493079 -13.574688 0.000000 -0.000001 38.125385 -37.423768 36.563847 -23.923903 -0.000001 0.000004 59.838591 3.653101 51.977688 -19.846712 -0.012777 0.000002 -46.618268 32.895393 86.907156 2.894404 0.000001 6.791366 -10.062800 8.176975 0.251296 13.574688 0.000000 0.000004 15.470235 28.172440 2.094412 23.923899 -0.000004 -0.000009 64.310725 3.610039 -76.023045 19.846718 -0.012767 -0.000000 -31.180995 -33.695676 -92.209418 -9.469262 -0.004641 0.045488 -69.865267 4.014524 -37.017744 -0.000772 -0.007225 -40.476952 141.216743 -12.278854 17.264980 -0.000707 -0.049211 -35.224056 14.869913 -42.587964 20.968131 -0.000003 -12.539531 -6.151377 -0.031209 -0.025704 0.011989 9.469265 -0.004641 0.045488 -48.573925 -9.201213 -26.791511 -0.000409 -0.005751 -40.476067 101.411391 -15.872658 9.055074 -0.000354 -0.049946 -35.222157 52.151749 -38.147180 9.670645 -0.000001 -12.539534 -6.151389 -0.013307 -0.009181 0.055940 
8.385748 33.543552 9.280363 -11.637761 28.989724 -112.398911 0.000000 0.009280 11.569108 13.350347 9.347361 1.663007 0.000003 -0.016863 9.269638 5.960175 4.090624 0.999852 0.000001 0.000001 8.374497 5.960177 4.090621 0.999855 -0.000001 0.000001 8.374495 4.474947 3.058576 0.789613 -0.000001 -0.000002 12.152555 15.674237 0.482630 -0.553635 0.000002 -0.040103 7.802309 -7.072912 1.081180 -0.831014 -2.894407 -0.000002 6.791378 -0.584643 -5.985174 -3.498377 -13.574685 0.000003 -0.000000 38.149957 -37.428385 36.576606 -23.923895 -0.000002 -0.000002 59.822697 3.658783 51.972573 -19.846712 -0.012760 -0.000004 -46.604495 32.896189 86.898291 2.894403 0.000000 6.791375 -10.126506 8.191103 0.274847 13.574679 0.000000 0.000001 15.510801 28.172534 2.132161 23.923897 -0.000002 -0.000007 64.305507 3.575720 -76.022779 19.846712 -0.012769 0.000000 -31.186903 -33.703613 -92.197793 -9.469265 -0.004644 0.045487 -69.835003 3.930023 -36.988302 -0.000774 -0.007221 -40.476936 141.066561 -12.310304 17.206052 -0.000701 -0.049207 -35.224049 14.906058 -42.502833 20.945806 0.000002 -12.539533 -6.151386 -0.035827 -0.034559 0.024931 9.469262 -0.004644 0.045488 -48.563536 -9.166207 -26.723834 -0.000407 -0.005744 -40.476059 101.404554 -15.899084 9.105579 -0.000356 -0.049950 -35.222157 52.178725 -38.167370 9.627623 -0.000004 -12.539530 -6.151383 -0.021507 -0.014454 0.075626 
8.397917 33.564613 9.268147 -11.632959 29.011577 -112.388878 0.000002 0.009283 11.569106 13.359655 9.323934 1.655052 -0.000002 -0.016863 9.269638 5.957988 4.092237 0.999001 0.000003 -0.000002 8.374492 5.957989 4.092236 0.999005 -0.000003 0.000001 8.374491 4.473303 3.059797 0.788981 -0.000001 -0.000002 12.152554 15.620096 0.500144 -0.589352 0.000001 -0.040101 7.802320 -7.172992 1.126505 -0.889184 -2.894404 -0.000000 6.791370 -0.594019 -5.982701 -3.503813 -13.574680 0.000003 -0.000001 38.165810 -37.443380 36.573505 -23.923901 -0.000000 -0.000000 59.819330 3.660701 51.971640 -19.846716 -0.012768 0.000004 -46.580172 32.895393 86.881577 2.894401 0.000000 6.791373 -10.193528 8.203852 0.297223 13.574685 0.000001 -0.000005 15.578823 28.186872 2.156827 23.923895 -0.000003 -0.000002 64.279983 3.541119 -76.013804 19.846724 -0.012766 0.000001 -31.183208 -33.715880 -92.173136 -9.469264 -0.004643 0.045488 -69.854715 4.047322 -36.996550 -0.000776 -0.007227 -40.476944 141.206156 -12.202332 17.247510 -0.000712 -0.049208 -35.224041 15.013787 -42.438482 20.997550 -0.000005 -12.539531 -6.151392 -0.070639 -0.014422 0.103143 9.469262 -0.004643 0.045488 -48.546734 -9.157009 -26.715180 -0.000411 -0.005742 -40.476067 101.391529 -15.923169 9.136426 -0.000347 -0.049950 -35.222157 52.205318 -38.175170 9.596563 -0.000006 -12.539533 -6.151377 -0.031365 -0.015030 0.078804 
